<svg id="Layer_1" height="512" viewBox="0 0 512 512" width="512" xmlns="http://www.w3.org/2000/svg"><g><g><g><path d="m64 176h384v240h-384z" fill="#4b464b"/></g></g><g><g><path d="m472 176h-432c-4.418 0-8-3.582-8-8v-16c0-4.418 3.582-8 8-8h432c4.418 0 8 3.582 8 8v16c0 4.418-3.582 8-8 8z" fill="#f0e1cd"/></g></g><g><g><path d="m472 448h-432v-24c0-4.418 3.582-8 8-8h416c4.418 0 8 3.582 8 8z" fill="#b9af9b"/></g></g><g><g><path d="m480 480h-448c-4.418 0-8-3.582-8-8v-16c0-4.418 3.582-8 8-8h448c4.418 0 8 3.582 8 8v16c0 4.418-3.582 8-8 8z" fill="#f0e1cd"/></g></g><g><g><path d="m400 123.169v.831c0 2.209-1.791 4-4 4h-56c-2.209 0-4-1.791-4-4v-24c0-2.209-1.791-4-4-4h-8c-2.209 0-4-1.791-4-4v-8c0-2.209-1.791-4-4-4h-8c-2.209 0-4-1.791-4-4v-19.652l-33.166-20.188c-4.47-2.721-9.602-4.16-14.834-4.16s-10.364 1.439-14.834 4.16l-177.166 107.84h384l-40.836-24.857c-3.141-1.912-7.164.349-7.164 4.026z" fill="#b9af9b"/></g></g><g><g><g><path d="m64 208h48v176h-48z" fill="#b9af9b"/></g></g><g><g><path d="m88 384h-24v-160h8c8.837 0 16 7.163 16 16z" fill="#f0e1cd"/></g></g><g><g><path d="m112 208h-48c-8.837 0-16-7.163-16-16v-16h80v16c0 8.837-7.163 16-16 16z" fill="#b9af9b"/></g></g><g><g><path d="m128 416h-80v-16c0-8.837 7.163-16 16-16h48c8.837 0 16 7.163 16 16z" fill="#f0e1cd"/></g></g></g><g><g><g><path d="m400 208h48v176h-48z" fill="#b9af9b"/></g></g><g><g><path d="m424 384h-24v-160h8c8.837 0 16 7.163 16 16z" fill="#f0e1cd"/></g></g><g><g><path d="m448 208h-48c-8.837 0-16-7.163-16-16v-16h80v16c0 8.837-7.163 16-16 16z" fill="#b9af9b"/></g></g><g><g><path d="m464 416h-80v-16c0-8.837 7.163-16 16-16h48c8.837 0 16 7.163 16 16z" fill="#f0e1cd"/></g></g></g><g><g><g><path d="m224 384h-48v-128l41.781-27.854c2.658-1.772 6.219.133 6.219 3.328z" fill="#b9af9b"/></g></g><g><g><path d="m200 384h-24v-128l24-16z" fill="#f0e1cd"/></g></g><g><g><path d="m240 416h-80v-16c0-8.837 7.163-16 16-16h48c8.837 0 16 7.163 16 16z" fill="#f0e1cd"/></g></g></g><g><g><g><path d="m288 208h48v176h-48z" fill="#b9af9b"/></g></g><g><g><path d="m312 384h-24v-160h8c8.837 0 16 7.163 16 16z" fill="#f0e1cd"/></g></g><g><g><path d="m336 208h-48c-8.837 0-16-7.163-16-16v-16h80v16c0 8.837-7.163 16-16 16z" fill="#b9af9b"/></g></g><g><g><path d="m352 416h-80v-16c0-8.837 7.163-16 16-16h48c8.837 0 16 7.163 16 16z" fill="#f0e1cd"/></g></g></g><g><g><circle cx="256" cy="96" fill="#f0e1cd" r="32"/></g></g><g><g><path d="m144 456h-48c-8.837 0-16 7.163-16 16v8h80v-8c0-8.837-7.163-16-16-16z" fill="#b9af9b"/></g></g><g><g><path d="m208 120h-48c-8.837 0-16 7.163-16 16v8h80v-8c0-8.837-7.163-16-16-16z" fill="#f0e1cd"/></g></g></g></svg>